<svg width="110" height="83" viewBox="0 0 110 83" fill="none" xmlns="http://www.w3.org/2000/svg">
  <path d="M52.5 68V62.5366C52.5 57.822 48.6944 54 44 54M35.5 68L35.5 62.5366C35.5 57.822 39.3056 54 44 54M44 54C47.7555 54 50.5 51.2717 50.5 47.5C50.5 43.7283 47.7555 41 44 41C40.2445 41 37.5 43.7283 37.5 47.5C37.5 51.2717 40.2445 54 44 54Z" stroke="#022675" stroke-width="4"/>
  <path fill-rule="evenodd" clip-rule="evenodd" d="M41.6716 0H82.5C86.366 0 89.5 3.13401 89.5 7V33.5H85.5V7C85.5 5.34315 84.1569 4 82.5 4H44.5V17C44.5 20.866 41.366 24 37.5 24H24.5V76C24.5 77.6569 25.8431 79 27.5 79H82.5C84.1569 79 85.5 77.6569 85.5 76V74H89.5V76C89.5 79.866 86.366 83 82.5 83H27.5C23.634 83 20.5 79.866 20.5 76V21.1716L41.6716 0ZM27.3284 20H37.5C39.1569 20 40.5 18.6569 40.5 17V6.82843L27.3284 20Z" fill="white"/>
  <path fill-rule="evenodd" clip-rule="evenodd" d="M77.5 18H52.5V14H77.5V18ZM77.5 28H62.5V24H77.5V28Z" fill="white"/>
  <path fill-rule="evenodd" clip-rule="evenodd" d="M88 35C78.0589 35 70 43.0589 70 53C70 62.9411 78.0589 71 88 71C97.9411 71 106 62.9411 106 53C106 43.0589 97.9411 35 88 35ZM66 53C66 40.8497 75.8497 31 88 31C100.15 31 110 40.8497 110 53C110 65.1503 100.15 75 88 75C75.8497 75 66 65.1503 66 53Z" fill="white"/>
  <path fill-rule="evenodd" clip-rule="evenodd" d="M85.5 41H89.5V53.1716L97.4142 61.0858L94.5858 63.9142L85.5 54.8284V41Z" fill="white"/>
</svg>