<svg width="320" height="176" viewBox="0 0 320 176" fill="none" xmlns="http://www.w3.org/2000/svg">
  <path fill-rule="evenodd" clip-rule="evenodd" d="M120 97C117.239 97 115 99.2386 115 102V166H205V102C205 99.2386 202.761 97 200 97H120ZM215 166H305V132C305 129.239 302.761 127 300 127H215V166ZM215 117V102C215 93.7157 208.284 87 200 87H120C111.716 87 105 93.7157 105 102V137H20C11.7157 137 5 143.716 5 152V166H0V176H320V166H315V132C315 123.716 308.284 117 300 117H215ZM15 166H105V147H20C17.2386 147 15 149.239 15 152V166Z" fill="#009FDA"/>
  <path fill-rule="evenodd" clip-rule="evenodd" d="M130 87V70C130 53.4315 143.431 40 160 40C176.569 40 190 53.4315 190 70V87H180V70C180 58.9543 171.046 50 160 50C148.954 50 140 58.9543 140 70V87H130Z" fill="#165EA0"/>
  <path fill-rule="evenodd" clip-rule="evenodd" d="M145 25C145 33.2843 151.716 40 160 40C168.284 40 175 33.2843 175 25C175 16.7157 168.284 10 160 10C151.716 10 145 16.7157 145 25ZM160 50C146.193 50 135 38.8071 135 25C135 11.1929 146.193 6.03528e-07 160 0C173.807 -6.03528e-07 185 11.1929 185 25C185 38.8071 173.807 50 160 50Z" fill="#165EA0"/>
  <path fill-rule="evenodd" clip-rule="evenodd" d="M230 117V100C230 83.4315 243.431 70 260 70C276.569 70 290 83.4315 290 100V117H280V100C280 88.9543 271.046 80 260 80C248.954 80 240 88.9543 240 100V117H230Z" fill="#165EA0"/>
  <path fill-rule="evenodd" clip-rule="evenodd" d="M245 55C245 63.2843 251.716 70 260 70C268.284 70 275 63.2843 275 55C275 46.7157 268.284 40 260 40C251.716 40 245 46.7157 245 55ZM260 80C246.193 80 235 68.8071 235 55C235 41.1929 246.193 30 260 30C273.807 30 285 41.1929 285 55C285 68.8071 273.807 80 260 80Z" fill="#165EA0"/>
  <path fill-rule="evenodd" clip-rule="evenodd" d="M30 137L30 120C30 103.431 43.4315 90 60 90C76.5685 90 90 103.431 90 120V137H80V120C80 108.954 71.0457 100 60 100C48.9543 100 40 108.954 40 120L40 137H30Z" fill="#165EA0"/>
  <path fill-rule="evenodd" clip-rule="evenodd" d="M45 75C45 83.2843 51.7157 90 60 90C68.2843 90 75 83.2843 75 75C75 66.7157 68.2843 60 60 60C51.7157 60 45 66.7157 45 75ZM60 100C46.1929 100 35 88.8071 35 75C35 61.1929 46.1929 50 60 50C73.8071 50 85 61.1929 85 75C85 88.8071 73.8071 100 60 100Z" fill="#165EA0"/>
</svg>