<svg width="144" height="160" viewBox="0 0 144 160" fill="none" xmlns="http://www.w3.org/2000/svg">
  <rect width="144" height="160" fill="#F5F5F5"/>
  <path fill-rule="evenodd" clip-rule="evenodd" d="M46.2 60.2385C46.2 45.8172 57.6821 34 72 34C86.3179 34 97.8 45.8171 97.8 60.2385C97.8 68.5953 93.9444 76.0776 87.9156 80.8928C96.9683 86.4155 103 96.5022 103 107.969L103 126H93V107.969C93 96.0293 83.529 86.4769 72 86.4769C60.471 86.4769 51 96.0293 51 107.969L51 126H41L41 107.969C41 96.5022 47.0317 86.4155 56.0844 80.8928C50.0556 76.0776 46.2 68.5953 46.2 60.2385ZM72 76.4268C80.6572 76.4268 87.8 69.2488 87.8 60.2385C87.8 51.2281 80.6572 44.0502 72 44.0502C63.3428 44.0502 56.2 51.2281 56.2 60.2385C56.2 69.2488 63.3428 76.4268 72 76.4268Z" fill="#C7C8C9"/>
</svg>