<svg width="1916" height="1916" viewBox="0 0 1916 1916" fill="none" xmlns="http://www.w3.org/2000/svg">
  <circle opacity="0.4" cx="958" cy="958" r="263" stroke="white" stroke-width="4" stroke-dasharray="4 6"/>
  <path opacity="0.4" d="M598.629 744.5C561.389 806.988 540 879.999 540 958C540 1011.81 550.181 1063.25 568.724 1110.5M661.502 663.5C737.314 587.228 842.375 540 958.479 540C1046.14 540 1127.51 566.925 1194.75 612.948M1286.17 698C1327.89 750.393 1357.29 813.019 1369.96 881.5M1376 986.5C1370.7 1065.11 1343.64 1137.76 1300.8 1198.5M1216.77 1286.9C1145.64 1342.71 1055.95 1376 958.479 1376C823.465 1376 703.385 1312.14 626.865 1213" stroke="white" stroke-width="4" stroke-dasharray="4 6"/>
  <circle opacity="0.4" cx="958" cy="958" r="652" stroke="white" stroke-width="4" stroke-dasharray="4 6"/>
  <circle opacity="0.4" cx="958" cy="958" r="956" stroke="white" stroke-width="4" stroke-dasharray="4 6"/>
  <path fill-rule="evenodd" clip-rule="evenodd" d="M596.3 663.758C594.802 663.05 593.014 663.691 592.306 665.189L581.837 687.339C581.13 688.837 581.77 690.626 583.268 691.334L587.337 693.256L583.152 702.11L600.809 699.624L619.433 708.425C620.931 709.133 622.719 708.492 623.427 706.994L633.895 684.843C634.603 683.345 633.963 681.557 632.465 680.849L596.3 663.758ZM588.689 663.479C590.341 659.984 594.514 658.49 598.009 660.141L634.174 677.233C637.669 678.884 639.164 683.057 637.512 686.552L627.044 708.703C625.392 712.199 621.219 713.693 617.724 712.041L600.182 703.751L576.368 707.105L582.011 695.164L581.559 694.95C578.064 693.298 576.569 689.126 578.221 685.63L588.689 663.479Z" fill="#83D8F9"/>
  <path fill-rule="evenodd" clip-rule="evenodd" d="M664.356 706.981C665.854 707.689 666.495 709.477 665.787 710.975L655.319 733.126C654.611 734.624 652.822 735.265 651.324 734.557L647.256 732.634L643.072 741.488L633.783 726.267L615.16 717.466C613.662 716.758 613.021 714.97 613.729 713.472L614.797 711.211L611.181 709.502L610.113 711.763C608.461 715.258 609.955 719.431 613.451 721.082L630.992 729.372L643.52 749.901L649.163 737.96L649.615 738.173C653.111 739.825 657.283 738.331 658.935 734.836L669.403 712.685C671.055 709.189 669.561 705.017 666.065 703.365L636.682 689.478L634.972 693.095L664.356 706.981Z" fill="#83D8F9"/>
  <path fill-rule="evenodd" clip-rule="evenodd" d="M1278.46 1215.66L1243.31 1266.28L1248.86 1270.13L1246.57 1273.42L1206.74 1245.75L1209.02 1242.47L1213.33 1245.46L1242.72 1203.14L1278.46 1215.66ZM1216.62 1247.74L1240.03 1264L1272.18 1217.7L1244.27 1207.92L1216.62 1247.74ZM1252.69 1232.62L1241.6 1224.92L1243.88 1221.63L1254.97 1229.33L1252.69 1232.62ZM1246.99 1240.83L1235.9 1233.13L1238.18 1229.84L1249.27 1237.54L1246.99 1240.83ZM1241.28 1249.04L1230.19 1241.34L1232.47 1238.06L1243.56 1245.76L1241.28 1249.04Z" fill="#83D8F9"/>
  <path fill-rule="evenodd" clip-rule="evenodd" d="M1297.54 1244.29L1271.67 1226.32L1269.39 1229.6L1291.98 1245.29L1266.31 1282.25L1243.72 1266.57L1241.44 1269.85L1271.42 1290.67L1273.7 1287.39L1269.6 1284.53L1297.54 1244.29ZM1281.25 1247.58L1270.17 1239.88L1267.88 1243.17L1278.97 1250.87L1281.25 1247.58ZM1275.55 1255.8L1264.46 1248.1L1262.18 1251.38L1273.27 1259.08L1275.55 1255.8ZM1269.85 1264.01L1258.76 1256.31L1256.48 1259.6L1267.56 1267.3L1269.85 1264.01Z" fill="#83D8F9"/>
  <path fill-rule="evenodd" clip-rule="evenodd" d="M1374 907.086C1362.23 908.099 1353 917.971 1353 930C1353 942.703 1363.3 953 1376 953C1388.03 953 1397.9 943.766 1398.91 932H1374V907.086ZM1349 930C1349 915.088 1361.09 903 1376 903H1378V928H1403V930C1403 944.912 1390.91 957 1376 957C1361.09 957 1349 944.912 1349 930Z" fill="#83D8F9"/>
  <path fill-rule="evenodd" clip-rule="evenodd" d="M1398.91 928H1378V907.086C1389.11 908.042 1397.96 916.893 1398.91 928ZM1403 930C1403 915.088 1390.91 903 1376 903H1374V932H1403V930Z" fill="#83D8F9"/>
  <path fill-rule="evenodd" clip-rule="evenodd" d="M1330.5 948H1352V952H1330.5V948ZM1330.5 938H1345.5V942H1330.5V938ZM1330.5 928H1343.5V932H1330.5V928Z" fill="#83D8F9"/>
  <path fill-rule="evenodd" clip-rule="evenodd" d="M619.521 1183.54L587.892 1176.68L603.113 1148.12L607.114 1156.75L637.058 1142.88L640.42 1150.14C643.206 1156.16 640.589 1163.29 634.575 1166.08L615.52 1174.9L619.521 1183.54ZM612.513 1177.93L610.209 1172.95L632.894 1162.45C636.903 1160.59 638.648 1155.83 636.791 1151.82L635.11 1148.2L605.166 1162.06L602.862 1157.09L593.91 1173.89L612.513 1177.93Z" fill="#83D8F9"/>
  <path fill-rule="evenodd" clip-rule="evenodd" d="M564.267 1138.01L595.897 1144.87L580.675 1173.43L576.674 1164.79L546.73 1178.66L543.368 1171.4C540.583 1165.39 543.2 1158.26 549.213 1155.47L568.268 1146.64L564.267 1138.01ZM571.276 1143.62L573.579 1148.59L550.894 1159.1C546.885 1160.96 545.141 1165.71 546.998 1169.72L548.679 1173.35L578.623 1159.48L580.926 1164.45L589.879 1147.66L571.276 1143.62Z" fill="#83D8F9"/>
  <path fill-rule="evenodd" clip-rule="evenodd" d="M1241 691C1261.99 691 1279 673.987 1279 653C1279 632.013 1261.99 615 1241 615C1220.01 615 1203 632.013 1203 653C1203 673.987 1220.01 691 1241 691ZM1241 695C1264.2 695 1283 676.196 1283 653C1283 629.804 1264.2 611 1241 611C1217.8 611 1199 629.804 1199 653C1199 676.196 1217.8 695 1241 695Z" fill="#83D8F9"/>
  <path fill-rule="evenodd" clip-rule="evenodd" d="M1222.52 650.355C1218.58 645.25 1219.23 637.735 1224.69 633.524C1230.15 629.314 1237.58 630.595 1241.52 635.699C1243.88 638.762 1244.59 642.692 1243.6 646.255C1248.6 645.224 1253.81 646.719 1257.15 651.057L1262.22 657.624L1259.05 660.067L1253.98 653.5C1250.68 649.215 1244.34 648.677 1239.35 652.53C1234.35 656.383 1233.26 662.65 1236.56 666.934L1241.63 673.501L1238.46 675.944L1233.4 669.377C1230.05 665.038 1229.93 659.622 1232.19 655.053C1228.5 655.103 1224.88 653.417 1222.52 650.355ZM1236.9 649.362C1240.54 646.558 1241 641.571 1238.35 638.142C1235.71 634.713 1230.77 633.887 1227.13 636.692C1223.5 639.497 1223.04 644.483 1225.68 647.912C1228.33 651.342 1233.27 652.167 1236.9 649.362Z" fill="#83D8F9"/>
</svg>