<svg width="320" height="132" viewBox="0 0 320 132" fill="none" xmlns="http://www.w3.org/2000/svg">
  <path fill-rule="evenodd" clip-rule="evenodd" d="M189.388 30.9725C170.472 30.9725 155.137 46.307 155.137 65.223C155.137 89.6619 135.326 109.474 110.887 109.474H15.3846V99.4735H110.887C129.803 99.4735 145.137 84.139 145.137 65.223C145.137 40.7841 164.949 20.9725 189.388 20.9725H245.519V30.9725H189.388Z" fill="#165EA0"/>
  <path d="M228.718 51.9456L239.17 25.9728L228.718 0L275.751 25.9732L228.718 51.9456Z" fill="#165EA0"/>
  <path d="M0 104.473C0 112.919 6.88793 119.766 15.3846 119.766C23.8813 119.766 30.7692 112.919 30.7692 104.473C30.7692 96.0277 23.8813 89.1811 15.3846 89.1811C6.88793 89.1811 0 96.0277 0 104.473Z" fill="#009FDA"/>
  <path fill-rule="evenodd" clip-rule="evenodd" d="M15.3846 109.474V99.4735H291.111V109.474H15.3846Z" fill="#009FDA"/>
  <path d="M269.744 132L280.912 104.474L269.744 76.9473L320 104.474L269.744 132Z" fill="#009FDA"/>
</svg>