<svg width="222" height="26" viewBox="0 0 222 26" fill="none" xmlns="http://www.w3.org/2000/svg">
  <path d="M79.564 0.378156C79.7079 0.252658 69.4119 16.5137 69.3669 16.4419V25.6033C69.3669 25.7288 60.7704 25.7288 60.8154 25.6033V16.4419C60.8154 16.4419 50.4744 0.252658 50.6182 0.378156C50.4744 0.252658 59.7183 0.252658 59.7723 0.378156C59.7183 0.252658 65.0866 8.69691 65.0866 8.74173C65.0866 8.78655 70.4819 0.252658 70.401 0.378156C70.455 0.252658 79.7079 0.252658 79.564 0.378156ZM45.9333 0.378156C45.9333 0.252658 37.076 0.252658 37.121 0.378156C37.076 0.252658 26.8519 25.7288 26.9688 25.6033C26.825 25.7288 35.5384 25.7288 35.6283 25.6033C35.7182 25.4778 36.8332 22.1342 36.8782 22.0177C36.8782 22.1073 45.8704 22.1073 45.8704 22.0177C45.8704 22.1073 47.0214 25.4689 47.0483 25.6033C47.0753 25.7378 56.0405 25.7288 55.9146 25.6033C56.0495 25.7288 45.9783 0.252658 45.9333 0.378156ZM39.0453 15.9489C39.0453 15.9489 41.5182 8.8493 41.5182 8.88515C41.5182 8.92101 43.8741 15.9848 43.8471 15.9489C43.8202 15.9131 39.0183 15.9848 39.0453 15.9489ZM20.8542 0.297478C18.6511 0.297478 16.448 0.297479 16.5199 0.38712V8.67001C16.5199 8.67001 14.5686 8.67001 12.5904 8.67001C10.6121 8.67001 8.65179 8.67001 8.66977 8.67001V0.38712C8.73272 0.324371 6.53863 0.297478 4.33555 0.297478C2.13247 0.297478 -0.0616224 0.297479 0.00132274 0.38712V25.6123C0.00132274 25.675 2.16844 25.7019 4.33555 25.7019C6.50266 25.7019 8.67877 25.7019 8.66977 25.6123V16.9529C8.66977 16.9529 10.6301 16.9529 12.5904 16.9529C14.5596 16.9529 16.5199 16.9529 16.5199 16.9529V25.6123C16.5199 25.675 18.6781 25.7019 20.8542 25.7019C23.0303 25.7019 25.1974 25.7019 25.1884 25.6123V0.38712C25.2513 0.324371 23.0483 0.297478 20.8542 0.297478ZM92.5577 9.18097C89.7971 8.7238 87.0815 8.87619 86.8747 7.72877C86.6678 6.58136 88.0886 6.43793 89.1587 6.49172C91.4067 6.40208 94.6349 7.38814 96.5143 8.09631L100.165 2.40406C96.3089 0.544745 92.0264 -0.259599 87.7559 0.073374C81.857 0.512618 78.3321 4.14311 78.5389 8.3742C78.5389 13.8065 83.9342 15.4021 86.533 15.8413C90.3546 16.5764 93.3131 16.2537 93.1962 17.6969C93.1962 18.683 91.3438 19.0057 89.3835 18.8802C86.5243 18.8287 83.7307 18.018 81.2905 16.5316L77.4778 22.439C81.5452 25.1356 86.4172 26.3601 91.2808 25.9081C96.811 25.4061 101.037 22.8065 101.424 18.3065C102.251 12.2557 97.3595 9.88017 92.5217 9.18097H92.5577ZM112.188 0.880149H115.784C116.275 0.853349 116.766 0.923508 117.229 1.08659C117.692 1.24966 118.118 1.50244 118.482 1.83035C118.76 2.12294 118.976 2.46797 119.118 2.84514C119.26 3.22231 119.325 3.624 119.309 4.02657V4.08036C119.34 4.72966 119.152 5.37043 118.775 5.90132C118.399 6.43221 117.856 6.82292 117.232 7.01164L119.588 10.8842H117.673L115.533 7.34331H113.833V10.8752H112.17L112.188 0.880149ZM115.641 5.87319C116.926 5.87319 117.646 5.18295 117.646 4.14311C117.646 3.01362 116.918 2.42199 115.668 2.42199H113.869V5.90008L115.641 5.87319ZM120.254 7.15507V7.06543C120.254 4.79749 121.629 3.16601 123.491 3.16601C125.55 3.16601 126.647 4.88713 126.647 7.15507C126.647 7.25367 126.647 7.47778 126.647 7.71085H121.89C121.888 8.22368 122.089 8.71671 122.449 9.08268C122.809 9.44866 123.3 9.65795 123.814 9.66503C124.144 9.65722 124.469 9.58244 124.769 9.44527C125.069 9.30809 125.338 9.11141 125.559 8.86722L126.404 9.87121C126.067 10.2495 125.651 10.5497 125.185 10.751C124.719 10.9523 124.214 11.0497 123.707 11.0366C121.773 11.0366 120.254 9.5485 120.254 7.15507ZM125.064 6.57239C124.983 5.3712 124.435 4.50167 123.491 4.50167C122.547 4.50167 121.971 5.28155 121.863 6.57239H125.064ZM127.546 7.02957C127.546 4.7706 129.021 3.13912 131.017 3.13912C131.473 3.1295 131.926 3.2164 132.347 3.3941C132.767 3.57179 133.144 3.83624 133.454 4.17L132.555 5.35327C132.37 5.12487 132.138 4.93923 131.874 4.80922C131.61 4.67921 131.321 4.60792 131.026 4.60028C129.965 4.60028 129.228 5.61323 129.228 7.03853V7.15507C129.228 8.62519 130.001 9.61125 131.107 9.61125C131.405 9.59931 131.697 9.5244 131.964 9.39149C132.23 9.25859 132.465 9.07072 132.654 8.84033L133.553 9.91603C133.245 10.2835 132.858 10.5768 132.42 10.7739C131.983 10.9711 131.506 11.067 131.026 11.0545C128.985 11.0366 127.546 9.44989 127.546 7.19989V7.02957ZM134.569 3.28255H136.188V4.7706C136.338 4.29215 136.644 3.87761 137.058 3.59323C137.472 3.30886 137.97 3.17106 138.472 3.20187V4.9947H138.4C137.087 4.9947 136.197 5.89112 136.197 7.57638V10.92H134.578L134.569 3.28255ZM139.443 3.30944H141.061V7.92599C141.061 8.98376 141.565 9.56643 142.41 9.56643C143.256 9.56643 143.867 8.9479 143.867 7.8991V3.30944H145.504V10.8842H143.867V9.78157C143.669 10.1554 143.373 10.4686 143.01 10.688C142.647 10.9074 142.232 11.0248 141.808 11.0276C140.27 11.0276 139.443 10.0057 139.443 8.38316V3.30944ZM147.122 0.60226H148.84V2.18892H147.122V0.60226ZM147.176 3.29151H148.795V10.8662H147.176V3.29151ZM150.773 9.03754V4.69888H149.946V3.30944H150.773V1.27457H152.392V3.30944H154.1V4.69888H152.392V8.7238C152.375 8.83509 152.385 8.94864 152.42 9.0555C152.455 9.16236 152.515 9.2596 152.594 9.33957C152.674 9.41953 152.771 9.48003 152.877 9.51629C152.984 9.55255 153.098 9.56357 153.21 9.5485C153.523 9.5589 153.832 9.48784 154.109 9.34232V10.669C153.694 10.8889 153.23 11 152.76 10.9917C152.497 11.0273 152.229 11.0016 151.977 10.9169C151.725 10.8321 151.496 10.6906 151.308 10.5032C151.12 10.3158 150.978 10.0876 150.893 9.8365C150.808 9.58539 150.782 9.3181 150.818 9.05547L150.773 9.03754ZM155.377 0.611225H157.095V2.19788H155.377V0.611225ZM155.431 3.30048H157.05V10.8752H155.431V3.30048ZM158.758 3.30048H160.377V4.46582C160.577 4.08851 160.876 3.772 161.241 3.54957C161.607 3.32715 162.026 3.20704 162.454 3.20187C163.911 3.20187 164.783 4.23275 164.783 5.8463V10.92H163.173V6.25865C163.173 5.20088 162.67 4.61821 161.806 4.61821C160.943 4.61821 160.377 5.2457 160.377 6.28554V10.8752H158.758V3.30048ZM166.195 12.3453L166.725 11.0724C167.41 11.4915 168.197 11.7148 169 11.7178C169.276 11.7604 169.557 11.7385 169.823 11.6539C170.088 11.5694 170.33 11.4244 170.53 11.2306C170.73 11.0367 170.882 10.7992 170.973 10.5369C171.065 10.2745 171.095 9.99445 171.059 9.71882V8.98376C170.826 9.38336 170.493 9.71621 170.093 9.95018C169.693 10.1841 169.239 10.3113 168.775 10.3194C167.256 10.3194 165.88 9.10029 165.88 6.73375V6.67997C165.88 4.34032 167.265 3.0943 168.775 3.0943C169.249 3.09985 169.712 3.22951 170.12 3.47026C170.527 3.71101 170.863 4.05436 171.095 4.46582V3.30944H172.714V9.65607C172.741 10.1133 172.676 10.5713 172.522 11.0026C172.367 11.434 172.127 11.8297 171.815 12.166C171.447 12.486 171.019 12.7301 170.556 12.884C170.093 13.0378 169.604 13.0985 169.117 13.0625C168.114 13.0697 167.124 12.8262 166.24 12.3543L166.195 12.3453ZM171.077 6.76065C171.107 6.50009 171.084 6.23623 171.009 5.98491C170.933 5.7336 170.808 5.50002 170.64 5.29822C170.472 5.09642 170.265 4.93057 170.031 4.81063C169.797 4.69069 169.541 4.61914 169.279 4.60028C168.29 4.60028 167.525 5.41602 167.525 6.76065C167.525 8.10527 168.308 8.92997 169.279 8.92997C169.545 8.91567 169.805 8.84754 170.043 8.72974C170.282 8.61194 170.494 8.44693 170.666 8.24479C170.839 8.04264 170.968 7.8076 171.047 7.55397C171.125 7.30035 171.151 7.03347 171.122 6.76961L171.077 6.76065ZM177.714 7.173V7.06543C177.714 4.79749 179.089 3.16601 180.951 3.16601C183.01 3.16601 184.107 4.88713 184.107 7.15507C184.107 7.25367 184.107 7.47778 184.107 7.71085H179.35C179.348 8.22215 179.547 8.71386 179.906 9.07958C180.264 9.44529 180.753 9.65562 181.265 9.66503C181.597 9.65843 181.923 9.58424 182.225 9.44703C182.527 9.30982 182.797 9.11249 183.019 8.86722L183.864 9.87121C183.526 10.2485 183.11 10.5481 182.644 10.7493C182.178 10.9505 181.674 11.0485 181.167 11.0366C179.278 11.0366 177.759 9.5485 177.759 7.15507L177.714 7.173ZM182.524 6.59032C182.443 5.38913 181.895 4.5196 180.951 4.5196C180.007 4.5196 179.431 5.29948 179.314 6.59032H182.524ZM187.731 5.8463L189.206 3.30048H190.914L188.63 7.00268L191.013 10.8752H189.26L187.713 8.18595L186.157 10.8752H184.449L186.796 7.00268L184.539 3.30048H186.283L187.731 5.8463ZM191.93 3.30048H193.549V4.5196C193.763 4.11511 194.082 3.77529 194.472 3.53562C194.863 3.29595 195.311 3.16521 195.77 3.15705C197.29 3.15705 198.719 4.42996 198.719 6.98475V7.19093C198.719 9.72779 197.299 11.0186 195.77 11.0186C195.319 11.0148 194.877 10.8938 194.487 10.6674C194.098 10.441 193.774 10.1171 193.549 9.72778V13.0266H191.93V3.30048ZM197.083 7.15507V7.02957C197.083 5.51463 196.3 4.59131 195.329 4.59131C194.358 4.59131 193.531 5.53255 193.531 7.0206V7.15507C193.531 8.64312 194.358 9.58436 195.329 9.58436C196.3 9.58436 197.128 8.67898 197.128 7.15507H197.083ZM199.618 7.15507V7.06543C199.618 4.79749 200.994 3.16601 202.856 3.16601C204.924 3.16601 206.012 4.88713 206.012 7.15507C206.012 7.25367 206.012 7.47778 206.012 7.71085H201.255C201.253 8.22368 201.453 8.71671 201.814 9.08268C202.174 9.44866 202.665 9.65795 203.179 9.66503C203.509 9.65722 203.834 9.58244 204.134 9.44527C204.434 9.30809 204.703 9.11141 204.924 8.86722L205.769 9.87121C205.432 10.2499 205.016 10.5505 204.55 10.7518C204.084 10.9531 203.579 11.0503 203.071 11.0366C201.102 11.0366 199.618 9.5485 199.618 7.15507ZM204.438 6.57239C204.348 5.3712 203.809 4.50167 202.856 4.50167C201.903 4.50167 201.345 5.28155 201.228 6.57239H204.438ZM207.262 3.28255H208.88V4.7706C209.024 4.28786 209.326 3.86754 209.739 3.57788C210.152 3.28822 210.651 3.14623 211.155 3.17498V4.96781H211.084C209.762 4.96781 208.88 5.86423 208.88 7.54949V10.8931H207.262V3.28255ZM212.657 9.02858V4.69888H211.83V3.30944H212.657V1.27457H214.276V3.30944H215.984V4.69888H214.276V8.7238C214.259 8.83509 214.269 8.94864 214.304 9.0555C214.34 9.16236 214.399 9.2596 214.479 9.33957C214.558 9.41953 214.655 9.48003 214.762 9.51629C214.868 9.55255 214.982 9.56357 215.094 9.5485C215.407 9.5589 215.717 9.48784 215.993 9.34232V10.669C215.581 10.8878 215.12 10.9988 214.653 10.9917C214.383 11.0431 214.105 11.0294 213.841 10.9517C213.577 10.8741 213.336 10.7347 213.137 10.5453C212.938 10.3559 212.788 10.1219 212.698 9.86272C212.608 9.60358 212.582 9.32682 212.621 9.05547L212.657 9.02858ZM216.605 9.925L217.36 8.76862C217.937 9.29408 218.675 9.60994 219.455 9.66503C220.13 9.66503 220.516 9.31543 220.516 8.84033C220.516 8.30248 219.923 8.06045 219.024 7.67499C217.891 7.19093 216.946 6.671 216.946 5.43395C216.95 5.12344 217.018 4.81705 217.146 4.53376C217.273 4.25047 217.458 3.99632 217.688 3.78706C217.918 3.5778 218.189 3.41788 218.484 3.31722C218.778 3.21656 219.091 3.1773 219.401 3.20187C220.286 3.21552 221.145 3.49688 221.865 4.00865L221.2 5.20088C220.678 4.80771 220.053 4.57413 219.401 4.52857C218.808 4.52857 218.448 4.85128 218.448 5.27259C218.448 5.77459 219.051 6.02558 219.932 6.42897C221.11 6.95785 222 7.49571 222 8.67898C222 10.167 220.867 10.9828 219.401 10.9828C218.368 10.9795 217.368 10.6218 216.569 9.96982L216.605 9.925ZM111.495 18.1272H113.159L114.445 23.2368L115.847 18.1093H117.223L118.626 23.2368L119.93 18.1272H121.566L119.426 25.7557H117.943L116.522 20.6999L115.092 25.7557H113.617L111.495 18.1272ZM121.98 21.9997V21.8653C121.939 21.3768 122 20.8853 122.157 20.421C122.314 19.9567 122.566 19.5294 122.895 19.1657C123.225 18.802 123.625 18.5094 124.073 18.3061C124.52 18.1028 125.004 17.9931 125.496 17.9838C127.501 17.9838 128.976 19.6153 128.976 21.8563V21.9818C129.015 22.4695 128.954 22.9601 128.796 23.4233C128.638 23.8866 128.387 24.3127 128.057 24.6755C127.728 25.0382 127.328 25.33 126.881 25.5327C126.434 25.7354 125.951 25.8449 125.46 25.8543C123.446 25.8543 121.971 24.2408 121.971 21.9997H121.98ZM127.375 21.9997V21.9191C127.375 20.5027 126.584 19.4449 125.478 19.4449C124.372 19.4449 123.617 20.4938 123.617 21.9011V21.9908C123.617 23.4071 124.408 24.4738 125.514 24.4738C126.62 24.4738 127.348 23.3802 127.348 21.9639L127.375 21.9997ZM130.271 18.1631H131.889V19.6153C132.034 19.1325 132.336 18.7121 132.749 18.4211C133.161 18.1302 133.66 17.9857 134.164 18.0107V19.8035H134.093C132.78 19.8035 131.889 20.6999 131.889 22.3942V25.7288H130.271V18.1631ZM135.297 15.42H136.916V25.7288H135.297V15.42ZM138.31 22.0446V21.8653C138.31 19.3015 139.731 18.0196 141.259 18.0196C141.709 18.0251 142.149 18.146 142.538 18.3705C142.927 18.595 143.252 18.9157 143.48 19.3015V15.3842H145.099V25.693H143.48V24.4828C143.264 24.885 142.945 25.2225 142.554 25.4604C142.164 25.6984 141.717 25.8282 141.259 25.8364C139.713 25.8364 138.283 24.5635 138.283 22.0087L138.31 22.0446ZM143.507 22.0446V21.9011C143.507 20.4131 142.68 19.4718 141.709 19.4718C140.738 19.4718 139.955 20.3683 139.955 21.9191V22.0266C139.955 23.5416 140.738 24.4738 141.709 24.4738C142.68 24.4738 143.48 23.4699 143.48 21.9818L143.507 22.0446ZM146.205 18.19H147.869L149.154 23.2995L150.566 18.172H151.942L153.345 23.2995L154.649 18.19H156.276L154.145 25.8185H152.652L151.232 20.7627L149.802 25.8185H148.327L146.205 18.19ZM157.382 15.5007H159.1V17.0157H157.355L157.382 15.5007ZM157.445 18.19H159.064V25.7557H157.445V18.19ZM160.449 22.0714V21.8922C160.449 19.3284 161.869 18.0465 163.407 18.0465C163.855 18.0536 164.294 18.1751 164.681 18.3996C165.068 18.624 165.391 18.9438 165.619 19.3284V15.3842H167.247V25.693H165.619V24.4828C165.406 24.8855 165.088 25.2237 164.699 25.4619C164.31 25.7 163.864 25.8294 163.407 25.8364C161.851 25.8364 160.404 24.5635 160.404 22.0087L160.449 22.0714ZM165.655 22.0714V21.928C165.655 20.44 164.819 19.4987 163.857 19.4987C162.894 19.4987 162.058 20.3951 162.058 21.9459V22.0535C162.058 23.5685 162.85 24.5007 163.857 24.5007C164.864 24.5007 165.61 23.4699 165.61 21.9818L165.655 22.0714ZM168.524 22.0714V21.9549C168.524 19.687 169.89 18.0555 171.761 18.0555C173.82 18.0555 174.908 19.7677 174.908 22.0356C174.908 22.1432 174.908 22.3673 174.908 22.6003H170.151C170.149 23.1116 170.348 23.6033 170.707 23.9691C171.065 24.3348 171.554 24.5451 172.066 24.5545C172.397 24.5488 172.722 24.475 173.023 24.3377C173.323 24.2004 173.591 24.0026 173.811 23.7567L174.656 24.7517C174.32 25.1316 173.904 25.4335 173.438 25.6364C172.972 25.8392 172.467 25.9381 171.959 25.926C169.989 25.8543 168.479 24.3663 168.479 21.9997L168.524 22.0714ZM173.334 21.4798C173.244 20.2876 172.705 19.4091 171.761 19.4091C170.817 19.4091 170.241 20.1979 170.124 21.4798H173.334Z" fill="#022675"/>
</svg>