<svg width="154" height="154" viewBox="0 0 154 154" fill="none" xmlns="http://www.w3.org/2000/svg">
  <path fill-rule="evenodd" clip-rule="evenodd" d="M0 21H154V31H10V122H154V132H0V21ZM154 62H92V52H154V62ZM154 81.5H92V71.5H154V81.5ZM154 101.5H92V91.5H154V101.5Z" fill="#E3E4E4"/>
  <path fill-rule="evenodd" clip-rule="evenodd" d="M33 64.9268C33 54.9721 41.2237 47 51 47C60.7763 47 69 54.9721 69 64.9268C69 69.7634 67.0475 74.195 63.899 77.4595C68.8365 81.3391 72 87.3905 72 94.1585V105H62V94.1585C62 87.9493 57.0288 83 51 83C44.9712 83 40 87.9493 40 94.1585L40 105H30L30 94.1585C30 87.3905 33.1635 81.3391 38.101 77.4595C34.9525 74.195 33 69.7634 33 64.9268ZM51 73C55.2889 73 59 69.3237 59 64.9268C59 60.603 55.3622 57 51 57C46.6378 57 43 60.603 43 64.9268C43 69.3237 46.7111 73 51 73Z" fill="#E3E4E4"/>
</svg>