<svg width="154" height="154" viewBox="0 0 154 154" fill="none" xmlns="http://www.w3.org/2000/svg">
  <path fill-rule="evenodd" clip-rule="evenodd" d="M63 26C60.2386 26 58 28.2386 58 31V44H110V31C110 28.2386 107.761 26 105 26H63ZM120 44V31C120 22.7157 113.284 16 105 16H63C54.7157 16 48 22.7157 48 31V44H0V154H10V102H58V116H68V123C68 131.837 75.1634 139 84 139C92.8366 139 100 131.837 100 123V116H110V102H154V92H110V78H58V92H10V54H154V44H120ZM100 106V88H68V106H100ZM78 116H90V123C90 126.314 87.3137 129 84 129C80.6863 129 78 126.314 78 123V116Z" fill="#E3E4E4"/>
</svg>