<?xml version="1.0" encoding="utf-8"?>
<!-- Generator: Adobe Illustrator 24.2.1, SVG Export Plug-In . SVG Version: 6.00 Build 0)  -->
<svg version="1.1" id="Слой_1" xmlns="http://www.w3.org/2000/svg" xmlns:xlink="http://www.w3.org/1999/xlink" x="0px" y="0px"
	 viewBox="0 0 91.73 91.73" style="enable-background:new 0 0 91.73 91.73;" xml:space="preserve">
<style type="text/css">
	.st0{fill:#E42A85;}
	.st1{fill:#6F9C21;}
</style>
<path id="finish-line_1_" class="st1" d="M59.37,30.47v9h-9v-9H59.37z M32.37,30.47v9h9v-9H32.37z M86.37,78.47v3h-15v-3
	c0-1.66,1.34-3,3-3v-21h-57v21c1.66,0,3,1.34,3,3v3h-15v-3c0-1.66,1.34-3,3-3v-63c0-1.66,1.34-3,3-3h3c1.66,0,3,1.34,3,3v3h57v-3
	c0-1.66,1.34-3,3-3h3c1.66,0,3,1.34,3,3v63C85.02,75.47,86.37,76.82,86.37,78.47z M77.37,21.47h-9v9h-9v-9h-9v9h-9v-9h-9v9h-9v-9h-9
	v9h9v9h-9v9h9v-9h9v9h9v-9h9v9h9v-9h9v9h9v-9h-9v-9h9V21.47z"/>
</svg>
