<?xml version="1.0" encoding="utf-8"?>
<!-- Generator: Adobe Illustrator 24.2.1, SVG Export Plug-In . SVG Version: 6.00 Build 0)  -->
<svg version="1.1" id="Слой_1" xmlns="http://www.w3.org/2000/svg" xmlns:xlink="http://www.w3.org/1999/xlink" x="0px" y="0px"
	 viewBox="0 0 91.73 91.73" style="enable-background:new 0 0 91.73 91.73;" xml:space="preserve">
<style type="text/css">
	.st0{fill:#E42A85;}
	.st1{fill:#6F9C21;}
</style>
<path id="start_1_" class="st0" d="M50.37,30.47v9h-9v-9H50.37z M74.37,18.47v33c0,1.66-1.34,3-3,3h-45v24c0,1.66-1.34,3-3,3h-3
	c-1.66,0-3-1.34-3-3v-66c0-1.66,1.34-3,3-3h3c1.66,0,3,1.34,3,3v3h45C73.02,15.47,74.37,16.82,74.37,18.47z M68.37,21.47h-9v9h-9v-9
	h-9v9h-9v-9h-9v9h9v9h-9v9h9v-9h9v9h9v-9h9v9h9v-9h-9v-9h9V21.47z"/>
</svg>
